<svg width="60" height="50" viewBox="0 0 60 50" fill="none" xmlns="http://www.w3.org/2000/svg">
<path d="M53.9762 19.4805L48.1902 7.71104C47.2391 5.27597 44.8613 3.73376 42.325 3.73376H36.539L35.9841 1.46104C35.7464 0.568181 34.9538 0 34.0819 0H25.8388C24.967 0 24.1744 0.568181 23.9366 1.46104L23.3025 3.73376H16.4861C13.9498 3.73376 11.6513 5.27597 10.6209 7.71104L4.75561 19.6429C1.98151 20.3734 0 22.8896 0 25.8929L0.554821 41.9643C0.713342 43.5877 1.90225 44.8052 3.48745 44.8864V48.2143C3.48745 49.1883 4.59709 50 6.02378 50H12.6816C14.0291 50 15.218 49.1883 15.218 48.2143V44.9675H44.782V48.2143C44.782 49.1883 45.8917 50 47.3184 50H53.9762C55.3236 50 56.5125 49.1883 56.5125 48.2143V44.8864C58.0185 44.724 59.2867 43.5065 59.4452 41.9643L60 25.8929C59.9207 22.4838 57.3052 19.6429 53.9762 19.4805ZM17.1995 32.5487H8.56011C5.86526 32.5487 3.24967 30.276 2.77411 27.4351C2.37781 24.7565 4.12153 22.5649 6.73712 22.4838C8.32232 22.4838 9.82827 23.1331 10.9379 24.2695C11.889 25.2435 13.0779 25.8929 14.2668 26.2987L16.8032 27.1104C17.358 27.2727 17.8336 27.8409 17.9921 28.4091L18.4676 31.0065C18.4676 31.9805 17.9128 32.5487 17.1995 32.5487ZM8.1638 18.3442L12.7609 8.92857V8.8474C13.395 7.30519 14.8217 6.33117 16.4069 6.33117H42.325C43.9102 6.33117 45.3368 7.30519 45.9709 8.8474L46.0502 9.00974L50.6473 18.3442C50.6473 19.3182 41.1361 20.1299 29.4055 20.1299C17.675 20.1299 8.1638 19.3182 8.1638 18.3442ZM57.1466 27.5162C56.6711 30.3571 54.1347 32.6299 51.3606 32.6299H42.7213C41.9287 32.6299 41.4531 31.9805 41.6116 31.25L42.0872 28.6526C42.1664 28.0844 42.642 27.5162 43.2761 27.3539L45.8124 26.5422C47.0013 26.1364 48.1902 25.4058 49.1413 24.513C50.251 23.3766 51.7569 22.6461 53.3421 22.7273C55.7992 22.5649 57.6222 24.8377 57.1466 27.5162Z" fill="#003366"/>
</svg>
