<svg width="25" height="31" viewBox="0 0 25 31" fill="none" xmlns="http://www.w3.org/2000/svg">
<path d="M12.4 1.69741C18.45 1.69741 23.375 6.54361 23.375 12.4968C23.375 18.45 18.475 23.3208 12.4 23.3208C6.34999 23.3208 1.42499 18.4746 1.42499 12.5214C1.42499 6.56821 6.34999 1.69741 12.4 1.69741ZM12.4 0.44281C5.62499 0.44281 0.149994 5.83021 0.149994 12.4968C0.149994 19.1634 5.62499 24.5508 12.4 24.5508C19.175 24.5508 24.65 19.1634 24.65 12.4968C24.65 5.83021 19.175 0.44281 12.4 0.44281Z" fill="white"/>
<path d="M17.9 11.8818H6.92499V13.1364H17.9V11.8818Z" fill="white"/>
<path d="M13.05 7.10941H11.775V17.9088H13.05V7.10941Z" fill="white"/>
</svg>
